<svg version="1.1" id="Layer_1" xmlns="http://www.w3.org/2000/svg" xmlns:xlink="http://www.w3.org/1999/xlink" x="0px" y="0px" viewBox="0 0 533.2 102.9" style="enable-background:new 0 0 533.2 102.9;" xml:space="preserve">
<g>
	<path class="svg-fish" d="M119.1,16.9C109.3,12.9,90.5,0,77.4,0c-1,0-1.6,0.2-1.6,0.7c0,1.8,7.9,8.4,7.9,13.9c0,7.8-31.1,13-41.7,13
		c-12.8,0-30.7-14.8-38.9-14.8c-1.9,0-3,0.5-3,1.4c0,1.1,23.1,15.7,23.1,30.6C23.3,60.7,0,78,0,79.5c0,0.5,0.7,0.6,1.2,0.6
		c7.9,0,13-2.6,34.7-26.2c5.3-5.8,19.1-26.6,61.1-26.6c28.8,0,52.1,13.8,52.1,26.3c0,11.9-20.1,22-44.9,22c-22.1,0-38.9-9.8-38.9-19
		c0-8.2,9.7-17.6,30.8-17.6c16.4,0,29,6.5,29,14.4c0,9.9-27.6,10.1-27.6,0.8c0-6.3,12-4.4,12-4.4s-1.9-5.3-12.4-5.3
		c-12.9,0-20.9,5.7-20.9,12.3c0,7.1,12.9,13.1,29.8,13.1c19.9,0,32.2-7.8,32.2-16.2c0-10.8-19.5-20.7-42.1-20.7
		c-28.8,0-45.3,12-45.3,23.8c0,11.7,20.4,26.3,54.5,26.3c40.5,0,65.6-22.5,65.6-30.4C171,41.6,135.4,23.6,119.1,16.9z"></path>
	<g>
		<g>
			<path class="svg-lf" d="M188.4,19.1c0-1.9,1.6-3.6,3.5-3.6c2,0,3.6,1.6,3.6,3.6v60.4c0,2-1.5,3.6-3.5,3.6c-2,0-3.6-1.6-3.6-3.6V19.1
				z"></path>
			<path class="svg-lf" d="M316,34.1c-1.9,0-3.6,1.6-3.6,3.6v24.6c0,8.8-4.8,14.6-13.1,14.6c-8.3,0-13.1-5.8-13.1-14.6V37.7
				c0-2-1.6-3.6-3.6-3.6c-2,0-3.5,1.6-3.5,3.6v23.6c0,11.3,6.1,21.8,20.2,21.8c0,0,20.2,0.9,20.2-21.8V37.7
				C319.5,35.7,318.1,34.1,316,34.1z"></path>
			<path class="svg-lf" d="M402.7,41.6v-6.1v-4.2c0-5.4,1.5-9.5,4.1-12.2c2.4-2.4,5.9-3.7,10.2-3.7c2.3,0,4,0.2,5.6,0.6
				c1.4,0.3,2.6,1.5,2.6,3c0,1.8-1.6,3.2-3.4,3c-1.2-0.2-2.5-0.5-3.9-0.5c-5.5,0-8.2,3.3-8.2,10.1v2.7H422c1.7,0,3.1,1.3,3.1,3
				c0,1.6-1.4,3-3.1,3h-12.2v39.3c0,1.9-1.5,3.6-3.5,3.6c-2,0-3.6-1.6-3.6-3.6V41.6z"></path>
			<path class="svg-lf" d="M449.1,77.2c-0.6-0.5-1.3-1.4-1.3-2.6c0-1.6,1.4-3,3.1-3c0.6,0,1.3,0.2,1.7,0.5c4.9,3.3,9.9,5,15,5
				c5.7,0,9.8-2.9,9.8-7.5v-0.2c0-4.8-5.6-6.6-11.8-8.3C458.2,59,450,56.5,450,47.8v-0.2c0-8.2,6.8-13.6,16.1-13.6
				c5,0,10.5,1.6,15.1,4c0.9,0.6,1.7,1.6,1.7,2.9c0,1.7-1.4,3-3.1,3c-0.6,0-1.2-0.2-1.6-0.4c-4-2.3-8.3-3.7-12.4-3.7
				c-5.6,0-9.2,2.9-9.2,6.9V47c0,4.5,5.9,6.2,12.2,8.2c7.3,2.2,15.2,5,15.2,13.6v0.2c0,9-7.4,14.2-16.9,14.2
				C461.1,83.1,454.2,80.9,449.1,77.2z"></path>
			<g>
				<path class="svg-lf" d="M207,37.7c0-1.9,1.6-3.6,3.5-3.6c2,0,3.6,1.6,3.6,3.6v41.9c0,2-1.5,3.6-3.5,3.6c-2,0-3.6-1.6-3.6-3.6V37.7z
					"></path>
				<circle class="svg-lf" cx="210.5" cy="19.5" r="4.1"></circle>
			</g>
			<g>
				<path class="svg-lf" d="M330,37.7c0-1.9,1.6-3.6,3.5-3.6c2,0,3.6,1.6,3.6,3.6v41.9c0,2-1.5,3.6-3.5,3.6c-2,0-3.6-1.6-3.6-3.6V37.7z
					"></path>
				<circle class="svg-lf" cx="333.5" cy="19.5" r="4.1"></circle>
			</g>
			<g>
				<path class="svg-lf" d="M433.2,37.7c0-1.9,1.6-3.6,3.5-3.6c2,0,3.6,1.6,3.6,3.6v41.9c0,2-1.5,3.6-3.5,3.6c-2,0-3.6-1.6-3.6-3.6
					V37.7z"></path>
				<circle class="svg-lf" cx="436.8" cy="19.5" r="4.1"></circle>
			</g>
			<path class="svg-lf" d="M392.4,58.2c0,16.4-12,24.9-24.4,24.9c-11.4,0-23.5-9-23.5-24.6v-0.2c0-15.5,11.3-24.2,22.6-24.2
				c8.6,0,15.5,4.1,18.2,8.7v-24c0-2,1.5-3.6,3.5-3.6c2,0,3.6,1.6,3.6,3.6C392.4,18.9,392.4,54.6,392.4,58.2z M351.8,58.5
				c0,11.2,7.1,18.3,16,18.3c10.7,0,17.9-7.2,17.9-18.4c0-11.1-8.3-17.9-17.1-17.9C359.2,40.5,351.8,46.8,351.8,58.5z"></path>
		</g>
		<path class="svg-lf" d="M270.6,99.3c0,2-1.6,3.6-3.6,3.6c-2,0-3.5-1.6-3.5-3.6v-25c-2.7,4.6-9.5,8.7-18.2,8.7
			c-11.4,0-22.6-8.7-22.6-24.2v-0.2c0-15.6,12.1-24.6,23.5-24.6c13.1,0,24.4,8.5,24.4,24.9C270.6,62.6,270.6,99.3,270.6,99.3z
			 M246.7,76.7c8.9,0,17.1-6.8,17.1-17.9c0-11.2-7.1-18.4-17.9-18.4c-8.9,0-16,7.2-16,18.3C230,70.5,237.5,76.7,246.7,76.7z"></path>
		<path class="svg-lf" d="M491.8,19c0-1.9,1.6-3.6,3.5-3.6c2,0,3.6,1.6,3.6,3.6v23.8c2.2-4.3,6.7-8.6,15.2-8.6
			c12.2,0,19.2,8.5,19.2,19.8v25.7c0,2-1.6,3.6-3.5,3.6c-2,0-3.6-1.6-3.6-3.6V55.1c0-8.8-4.1-14.4-12.5-14.4
			c-12.2,0-14.9,12.4-14.9,21.9v17.1c0,2-1.5,3.6-3.5,3.6c-2,0-3.6-1.6-3.6-3.6V19z"></path>
	</g>
</g>
</svg>