<!-- Generator: Adobe Illustrator 21.0.0, SVG Export Plug-In . SVG Version: 6.00 Build 0)  -->
<!DOCTYPE svg PUBLIC "-//W3C//DTD SVG 1.1//EN" "http://www.w3.org/Graphics/SVG/1.1/DTD/svg11.dtd">
<svg version="1.1" id="logo_x2F_colors" xmlns="http://www.w3.org/2000/svg" xmlns:xlink="http://www.w3.org/1999/xlink" x="0px"
	 y="0px" viewBox="0 0 213.4 44.5" style="enable-background:new 0 0 213.4 44.5;" xml:space="preserve">
<style type="text/css">
	.st0{fill:#007DC3;}
</style>
<g>
	<path d="M209.9,12.3v21.9h3.5v1.2h-11.9v-1.2h3.5V13.4l-7,22h-1.4l0-0.1l-6.9-21.8v20.7h3.5v1.2h-8.4v-1.2h3.5V12.3h-3.5v-1.2h9.4
		l4.9,16.1l5.1-16.1h9.3v1.2H209.9z M72.5,20.6c-1.2-0.5-2.5-0.8-3.7-1.1c-1.2-0.3-2.2-0.7-3.1-1.2c-0.8-0.5-1.2-1.3-1.2-2.4
		c0-1.1,0.5-2.1,1.3-2.8c0.8-0.7,1.8-1.1,2.9-1.1c1.1,0,2.1,0.3,3,0.8c0.8,0.6,1.5,1.3,2,2.2c0.5,0.9,0.8,1.9,0.9,3l0,0.1H76v-7
		h-0.8l-1.3,1.4c-1.4-1.1-3.1-1.7-5-1.7l-0.1,0c-1.9,0-3.5,0.7-4.6,1.9c-1.2,1.2-1.8,2.8-1.9,4.7c0,2,0.5,3.5,1.3,4.5
		c0.8,1,1.9,1.8,3.2,2.3c1.2,0.5,2.5,0.9,3.7,1.3c1.2,0.4,2.2,0.9,3,1.5c0.8,0.6,1.2,1.6,1.2,2.8c0,1.4-0.5,2.6-1.5,3.5
		c-1,0.9-2.2,1.3-3.6,1.4c-1.2,0-2.2-0.3-3.1-0.9c-0.8-0.6-1.5-1.4-2.1-2.3c-0.5-1-0.9-2-1.2-3.1l0-0.1h-1.3v7.3h0.8l1.6-1.4
		c0.7,0.6,1.4,1,2.3,1.3c0.9,0.3,1.8,0.5,2.7,0.5h0c2.3-0.1,4.2-0.8,5.5-2.3c1.3-1.4,2-3.3,2-5.6c0-2.1-0.5-3.8-1.3-4.9
		C74.8,21.9,73.7,21.1,72.5,20.6 M97.9,11.1h-1.3l-8.1,23.1h-2.9v1.2h7.8v-1.2h-3.6l5.7-15.8l5.7,15.8h-3.5v1.2h11.3v-1.2h-2.9
		L97.9,11.1z M130.7,21.3l6.1-9h3.5v-1.2h-8.9v1.2h3.9l-5.3,7.8l-4.7-7.8h3.4v-1.2H117v1.2h2.8l7.3,12l-6.8,9.8h-3.4v1.2h9.1v-1.2
		h-4.1l6-8.6l5.3,8.6h-3.5v1.2h11.9v-1.2h-2.8L130.7,21.3z M166.8,12.3h3.4V28c0,1.9-0.4,3.5-1.3,4.6c-0.9,1.1-2.4,1.7-4.3,1.7
		c-1.6,0-2.9-0.3-3.7-0.8c-0.8-0.6-1.3-1.3-1.6-2.4c-0.3-1.1-0.4-2.3-0.4-3.8V12.3h3.5v-1.2h-11.7v1.2h3.4v14.1c0,2,0.2,3.7,0.7,5.1
		c0.5,1.4,1.4,2.5,2.6,3.2c1.2,0.7,3,1.1,5.1,1.1h0.2c2,0,3.7-0.3,4.9-0.8c1.3-0.5,2.3-1.4,3-2.7c0.6-1.2,0.9-2.9,0.9-5.1V12.3h3.5
		v-1.2h-8.3V12.3z M35,19.3l-5.1-12l0.7,10.6L35,19.3z M47.3,44.5l-4-6.3l-4-0.6l-5.6-14.9l0.5,14l6.2,2.1v5.8H47.3z M36.2,44.5
		l-1.4-3.4l-3.8-2.3l-0.9-7.1l-2.1-0.9l-4.2-12.5l0,10.7l-0.5-0.2l-1.7-13.7l5.6,2.1l-0.6-7.4l-3.5-7.3L22.1,0L22,0l-0.4,0.2
		l-4.7,2.1l0,0l-1.4,7.6l-4.2,2.5L8.7,27.5l-4.3,3.9l-3.3,13h11.4l2.8-5.6l0,5.6h5.1l-1.6-11.3l5.5,11.3H36.2z M49,2.2
		c0-0.6-0.5-1.1-1.1-1.1H30l3.8,2.2l2,9.5l4.7,4.4L42,28.1l4.9,5.3l2.1,8.3V2.2z"/>
	<path class="st0" d="M1.1,1.1C0.5,1.1,0,1.6,0,2.2v38.6l2.5-9.9L6.8,27l2.6-15.4l4.2-2.5l1.6-8.1H1.1z"/>
</g>
</svg>